<?xml version="1.0" encoding="UTF-8"?><svg xmlns="http://www.w3.org/2000/svg" xmlns:xlink="http://www.w3.org/1999/xlink" fill-opacity="1" color-rendering="auto" color-interpolation="auto" text-rendering="auto" stroke="black" stroke-linecap="square" width="906" stroke-miterlimit="10" shape-rendering="auto" stroke-opacity="1" fill="black" stroke-dasharray="none" font-weight="normal" stroke-width="1" height="621" font-family="'Dialog'" font-style="normal" stroke-linejoin="miter" font-size="12px" stroke-dashoffset="0" image-rendering="auto">
  <!--Generated by ySVG 2.5-->
  <defs id="genericDefs"/>
  <g>
    <defs id="defs1">
      <linearGradient x1="138.9834" gradientUnits="userSpaceOnUse" x2="218.9834" y1="385" y2="425" id="linearGradient1" spreadMethod="reflect">
        <stop stop-opacity="1" stop-color="rgb(232,238,247)" offset="0%"/>
        <stop stop-opacity="1" stop-color="rgb(183,201,227)" offset="100%"/>
      </linearGradient>
      <linearGradient x1="843.9036" gradientUnits="userSpaceOnUse" x2="968.9036" y1="267" y2="307" id="linearGradient2" spreadMethod="reflect">
        <stop stop-opacity="1" stop-color="rgb(232,238,247)" offset="0%"/>
        <stop stop-opacity="1" stop-color="rgb(183,201,227)" offset="100%"/>
      </linearGradient>
      <linearGradient x1="860" gradientUnits="userSpaceOnUse" x2="985" y1="619.1667" y2="659.1667" id="linearGradient3" spreadMethod="reflect">
        <stop stop-opacity="1" stop-color="rgb(232,238,247)" offset="0%"/>
        <stop stop-opacity="1" stop-color="rgb(183,201,227)" offset="100%"/>
      </linearGradient>
      <linearGradient x1="860" gradientUnits="userSpaceOnUse" x2="985" y1="503" y2="543" id="linearGradient4" spreadMethod="reflect">
        <stop stop-opacity="1" stop-color="rgb(232,238,247)" offset="0%"/>
        <stop stop-opacity="1" stop-color="rgb(183,201,227)" offset="100%"/>
      </linearGradient>
      <linearGradient x1="705" gradientUnits="userSpaceOnUse" x2="830" y1="503" y2="543" id="linearGradient5" spreadMethod="reflect">
        <stop stop-opacity="1" stop-color="rgb(232,238,247)" offset="0%"/>
        <stop stop-opacity="1" stop-color="rgb(183,201,227)" offset="100%"/>
      </linearGradient>
      <linearGradient x1="550" gradientUnits="userSpaceOnUse" x2="675" y1="503" y2="543" id="linearGradient6" spreadMethod="reflect">
        <stop stop-opacity="1" stop-color="rgb(232,238,247)" offset="0%"/>
        <stop stop-opacity="1" stop-color="rgb(183,201,227)" offset="100%"/>
      </linearGradient>
      <linearGradient x1="368" gradientUnits="userSpaceOnUse" x2="520" y1="503" y2="543" id="linearGradient7" spreadMethod="reflect">
        <stop stop-opacity="1" stop-color="rgb(232,238,247)" offset="0%"/>
        <stop stop-opacity="1" stop-color="rgb(183,201,227)" offset="100%"/>
      </linearGradient>
      <linearGradient x1="213" gradientUnits="userSpaceOnUse" x2="338" y1="503" y2="543" id="linearGradient8" spreadMethod="reflect">
        <stop stop-opacity="1" stop-color="rgb(232,238,247)" offset="0%"/>
        <stop stop-opacity="1" stop-color="rgb(183,201,227)" offset="100%"/>
      </linearGradient>
      <linearGradient x1="242" gradientUnits="userSpaceOnUse" x2="322" y1="267" y2="307" id="linearGradient9" spreadMethod="reflect">
        <stop stop-opacity="1" stop-color="rgb(232,238,247)" offset="0%"/>
        <stop stop-opacity="1" stop-color="rgb(183,201,227)" offset="100%"/>
      </linearGradient>
      <linearGradient x1="690" gradientUnits="userSpaceOnUse" x2="815" y1="167" y2="207" id="linearGradient10" spreadMethod="reflect">
        <stop stop-opacity="1" stop-color="rgb(232,238,247)" offset="0%"/>
        <stop stop-opacity="1" stop-color="rgb(183,201,227)" offset="100%"/>
      </linearGradient>
      <linearGradient x1="690" gradientUnits="userSpaceOnUse" x2="815" y1="69" y2="109" id="linearGradient11" spreadMethod="reflect">
        <stop stop-opacity="1" stop-color="rgb(232,238,247)" offset="0%"/>
        <stop stop-opacity="1" stop-color="rgb(183,201,227)" offset="100%"/>
      </linearGradient>
      <linearGradient x1="360" gradientUnits="userSpaceOnUse" x2="440" y1="167" y2="207" id="linearGradient12" spreadMethod="reflect">
        <stop stop-opacity="1" stop-color="rgb(232,238,247)" offset="0%"/>
        <stop stop-opacity="1" stop-color="rgb(183,201,227)" offset="100%"/>
      </linearGradient>
      <linearGradient x1="242" gradientUnits="userSpaceOnUse" x2="322" y1="168" y2="208" id="linearGradient13" spreadMethod="reflect">
        <stop stop-opacity="1" stop-color="rgb(232,238,247)" offset="0%"/>
        <stop stop-opacity="1" stop-color="rgb(183,201,227)" offset="100%"/>
      </linearGradient>
      <linearGradient x1="124" gradientUnits="userSpaceOnUse" x2="204" y1="167" y2="207" id="linearGradient14" spreadMethod="reflect">
        <stop stop-opacity="1" stop-color="rgb(232,238,247)" offset="0%"/>
        <stop stop-opacity="1" stop-color="rgb(183,201,227)" offset="100%"/>
      </linearGradient>
      <linearGradient x1="242" gradientUnits="userSpaceOnUse" x2="322" y1="69" y2="109" id="linearGradient15" spreadMethod="reflect">
        <stop stop-opacity="1" stop-color="rgb(232,238,247)" offset="0%"/>
        <stop stop-opacity="1" stop-color="rgb(183,201,227)" offset="100%"/>
      </linearGradient>
      <clipPath clipPathUnits="userSpaceOnUse" id="clipPath1">
        <path d="M0 0 L906 0 L906 621 L0 621 L0 0 Z"/>
      </clipPath>
      <clipPath clipPathUnits="userSpaceOnUse" id="clipPath2">
        <path d="M109 54 L1015 54 L1015 675 L109 675 L109 54 Z"/>
      </clipPath>
    </defs>
    <g fill="white" text-rendering="geometricPrecision" shape-rendering="geometricPrecision" transform="translate(-109,-54)" stroke="white">
      <rect x="109" width="906" height="621" y="54" clip-path="url(#clipPath2)" stroke="none"/>
    </g>
    <g fill="url(#linearGradient1)" text-rendering="geometricPrecision" shape-rendering="geometricPrecision" transform="matrix(1,0,0,1,-109,-54)" stroke="url(#linearGradient1)">
      <path d="M138.9834 385 L218.9834 385 L218.9834 425 L138.9834 425 Z" stroke="none" clip-path="url(#clipPath2)"/>
    </g>
    <g text-rendering="geometricPrecision" stroke-miterlimit="1.45" shape-rendering="geometricPrecision" transform="matrix(1,0,0,1,-109,-54)" stroke-linecap="butt">
      <path fill="none" d="M138.9834 385 L218.9834 385 L218.9834 425 L138.9834 425 Z" clip-path="url(#clipPath2)"/>
      <text x="165.2637" xml:space="preserve" y="409.1543" clip-path="url(#clipPath2)" font-family="sans-serif" stroke="none">kowl</text>
    </g>
    <g fill="url(#linearGradient2)" text-rendering="geometricPrecision" shape-rendering="geometricPrecision" transform="matrix(1,0,0,1,-109,-54)" stroke="url(#linearGradient2)">
      <path d="M843.9036 267 L968.9036 267 L968.9036 307 L843.9036 307 Z" stroke="none" clip-path="url(#clipPath2)"/>
    </g>
    <g text-rendering="geometricPrecision" stroke-miterlimit="1.45" shape-rendering="geometricPrecision" transform="matrix(1,0,0,1,-109,-54)" stroke-linecap="butt">
      <path fill="none" d="M843.9036 267 L968.9036 267 L968.9036 307 L843.9036 307 Z" clip-path="url(#clipPath2)"/>
      <text x="870.1458" xml:space="preserve" y="291.1543" clip-path="url(#clipPath2)" font-family="sans-serif" stroke="none">prometheus</text>
    </g>
    <g fill="url(#linearGradient3)" text-rendering="geometricPrecision" shape-rendering="geometricPrecision" transform="matrix(1,0,0,1,-109,-54)" stroke="url(#linearGradient3)">
      <path d="M860 619.1667 L985 619.1667 L985 659.1667 L860 659.1667 Z" stroke="none" clip-path="url(#clipPath2)"/>
    </g>
    <g text-rendering="geometricPrecision" stroke-miterlimit="1.45" shape-rendering="geometricPrecision" transform="matrix(1,0,0,1,-109,-54)" stroke-linecap="butt">
      <path fill="none" d="M860 619.1667 L985 619.1667 L985 659.1667 L860 659.1667 Z" clip-path="url(#clipPath2)"/>
      <text x="895.7549" xml:space="preserve" y="643.321" clip-path="url(#clipPath2)" font-family="sans-serif" stroke="none">statistics</text>
    </g>
    <g fill="rgb(245,245,245)" text-rendering="geometricPrecision" shape-rendering="geometricPrecision" transform="matrix(1,0,0,1,-109,-54)" stroke="rgb(245,245,245)">
      <rect x="198" y="484" clip-path="url(#clipPath2)" width="802" rx="4" ry="4" height="74" stroke="none"/>
    </g>
    <g fill="rgb(235,235,235)" text-rendering="geometricPrecision" shape-rendering="geometricPrecision" transform="matrix(1,0,0,1,-109,-54)" stroke="rgb(235,235,235)">
      <rect x="198" width="802" height="4" y="484" clip-path="url(#clipPath2)" stroke="none"/>
    </g>
    <g text-rendering="geometricPrecision" stroke-miterlimit="1.45" stroke-dasharray="6,2" shape-rendering="geometricPrecision" transform="matrix(1,0,0,1,-109,-54)" stroke-linecap="butt">
      <rect x="198" y="484" clip-path="url(#clipPath2)" fill="none" width="802" rx="4" ry="4" height="74"/>
    </g>
    <g fill="url(#linearGradient4)" text-rendering="geometricPrecision" shape-rendering="geometricPrecision" transform="matrix(1,0,0,1,-109,-54)" stroke="url(#linearGradient4)">
      <path d="M860 503 L985 503 L985 543 L860 543 Z" stroke="none" clip-path="url(#clipPath2)"/>
    </g>
    <g text-rendering="geometricPrecision" stroke-miterlimit="1.45" shape-rendering="geometricPrecision" transform="matrix(1,0,0,1,-109,-54)" stroke-linecap="butt">
      <path fill="none" d="M860 503 L985 503 L985 543 L860 543 Z" clip-path="url(#clipPath2)"/>
      <text x="867.8057" xml:space="preserve" y="527.1543" clip-path="url(#clipPath2)" font-family="sans-serif" stroke="none">statistics-collector</text>
    </g>
    <g fill="url(#linearGradient5)" text-rendering="geometricPrecision" shape-rendering="geometricPrecision" transform="matrix(1,0,0,1,-109,-54)" stroke="url(#linearGradient5)">
      <path d="M705 503 L830 503 L830 543 L705 543 Z" stroke="none" clip-path="url(#clipPath2)"/>
    </g>
    <g text-rendering="geometricPrecision" stroke-miterlimit="1.45" shape-rendering="geometricPrecision" transform="matrix(1,0,0,1,-109,-54)" stroke-linecap="butt">
      <path fill="none" d="M705 503 L830 503 L830 543 L705 543 Z" clip-path="url(#clipPath2)"/>
      <text x="757.5391" xml:space="preserve" y="527.1543" clip-path="url(#clipPath2)" font-family="sans-serif" stroke="none">ner</text>
    </g>
    <g fill="url(#linearGradient6)" text-rendering="geometricPrecision" shape-rendering="geometricPrecision" transform="matrix(1,0,0,1,-109,-54)" stroke="url(#linearGradient6)">
      <path d="M550 503 L675 503 L675 543 L550 543 Z" stroke="none" clip-path="url(#clipPath2)"/>
    </g>
    <g text-rendering="geometricPrecision" stroke-miterlimit="1.45" shape-rendering="geometricPrecision" transform="matrix(1,0,0,1,-109,-54)" stroke-linecap="butt">
      <path fill="none" d="M550 503 L675 503 L675 543 L550 543 Z" clip-path="url(#clipPath2)"/>
      <text x="554.3223" xml:space="preserve" y="527.1543" clip-path="url(#clipPath2)" font-family="sans-serif" stroke="none">sentiment-analyzer</text>
    </g>
    <g fill="url(#linearGradient7)" text-rendering="geometricPrecision" shape-rendering="geometricPrecision" transform="matrix(1,0,0,1,-109,-54)" stroke="url(#linearGradient7)">
      <path d="M368 503 L520 503 L520 543 L368 543 Z" stroke="none" clip-path="url(#clipPath2)"/>
    </g>
    <g text-rendering="geometricPrecision" stroke-miterlimit="1.45" shape-rendering="geometricPrecision" transform="matrix(1,0,0,1,-109,-54)" stroke-linecap="butt">
      <path fill="none" d="M368 503 L520 503 L520 543 L368 543 Z" clip-path="url(#clipPath2)"/>
      <text x="374.6631" xml:space="preserve" y="527.1543" clip-path="url(#clipPath2)" font-family="sans-serif" stroke="none">language-identification</text>
    </g>
    <g fill="url(#linearGradient8)" text-rendering="geometricPrecision" shape-rendering="geometricPrecision" transform="matrix(1,0,0,1,-109,-54)" stroke="url(#linearGradient8)">
      <path d="M213 503 L338 503 L338 543 L213 543 Z" stroke="none" clip-path="url(#clipPath2)"/>
    </g>
    <g text-rendering="geometricPrecision" stroke-miterlimit="1.45" shape-rendering="geometricPrecision" transform="matrix(1,0,0,1,-109,-54)" stroke-linecap="butt">
      <path fill="none" d="M213 503 L338 503 L338 543 L213 543 Z" clip-path="url(#clipPath2)"/>
      <text x="239.1836" xml:space="preserve" y="527.1543" clip-path="url(#clipPath2)" font-family="sans-serif" stroke="none">data_reader</text>
    </g>
    <g fill="url(#linearGradient9)" text-rendering="geometricPrecision" shape-rendering="geometricPrecision" transform="matrix(1,0,0,1,-109,-54)" stroke="url(#linearGradient9)">
      <path d="M242 267 L322 267 L322 307 L242 307 Z" stroke="none" clip-path="url(#clipPath2)"/>
    </g>
    <g text-rendering="geometricPrecision" stroke-miterlimit="1.45" shape-rendering="geometricPrecision" transform="matrix(1,0,0,1,-109,-54)" stroke-linecap="butt">
      <path fill="none" d="M242 267 L322 267 L322 307 L242 307 Z" clip-path="url(#clipPath2)"/>
      <text x="253.0957" xml:space="preserve" y="291.1543" clip-path="url(#clipPath2)" font-family="sans-serif" stroke="none">kafka_init</text>
    </g>
    <g fill="url(#linearGradient10)" text-rendering="geometricPrecision" shape-rendering="geometricPrecision" transform="matrix(1,0,0,1,-109,-54)" stroke="url(#linearGradient10)">
      <path d="M690 167 L815 167 L815 207 L690 207 Z" stroke="none" clip-path="url(#clipPath2)"/>
    </g>
    <g text-rendering="geometricPrecision" stroke-miterlimit="1.45" shape-rendering="geometricPrecision" transform="matrix(1,0,0,1,-109,-54)" stroke-linecap="butt">
      <path fill="none" d="M690 167 L815 167 L815 207 L690 207 Z" clip-path="url(#clipPath2)"/>
      <text x="736.1875" xml:space="preserve" y="191.1543" clip-path="url(#clipPath2)" font-family="sans-serif" stroke="none">triton</text>
    </g>
    <g fill="url(#linearGradient11)" text-rendering="geometricPrecision" shape-rendering="geometricPrecision" transform="matrix(1,0,0,1,-109,-54)" stroke="url(#linearGradient11)">
      <path d="M690 69 L815 69 L815 109 L690 109 Z" stroke="none" clip-path="url(#clipPath2)"/>
    </g>
    <g text-rendering="geometricPrecision" stroke-miterlimit="1.45" shape-rendering="geometricPrecision" transform="matrix(1,0,0,1,-109,-54)" stroke-linecap="butt">
      <path fill="none" d="M690 69 L815 69 L815 109 L690 109 Z" clip-path="url(#clipPath2)"/>
      <text x="696.3936" xml:space="preserve" y="93.1543" clip-path="url(#clipPath2)" font-family="sans-serif" stroke="none">prepare-sentiment</text>
    </g>
    <g fill="url(#linearGradient12)" text-rendering="geometricPrecision" shape-rendering="geometricPrecision" transform="matrix(1,0,0,1,-109,-54)" stroke="url(#linearGradient12)">
      <path d="M360 167 L440 167 L440 207 L360 207 Z" stroke="none" clip-path="url(#clipPath2)"/>
    </g>
    <g text-rendering="geometricPrecision" stroke-miterlimit="1.45" shape-rendering="geometricPrecision" transform="matrix(1,0,0,1,-109,-54)" stroke-linecap="butt">
      <path fill="none" d="M360 167 L440 167 L440 207 L360 207 Z" clip-path="url(#clipPath2)"/>
      <text x="373.6035" xml:space="preserve" y="191.1543" clip-path="url(#clipPath2)" font-family="sans-serif" stroke="none">broker_3</text>
    </g>
    <g fill="url(#linearGradient13)" text-rendering="geometricPrecision" shape-rendering="geometricPrecision" transform="matrix(1,0,0,1,-109,-54)" stroke="url(#linearGradient13)">
      <path d="M242 168 L322 168 L322 208 L242 208 Z" stroke="none" clip-path="url(#clipPath2)"/>
    </g>
    <g text-rendering="geometricPrecision" stroke-miterlimit="1.45" shape-rendering="geometricPrecision" transform="matrix(1,0,0,1,-109,-54)" stroke-linecap="butt">
      <path fill="none" d="M242 168 L322 168 L322 208 L242 208 Z" clip-path="url(#clipPath2)"/>
      <text x="255.6035" xml:space="preserve" y="192.1543" clip-path="url(#clipPath2)" font-family="sans-serif" stroke="none">broker_2</text>
    </g>
    <g fill="url(#linearGradient14)" text-rendering="geometricPrecision" shape-rendering="geometricPrecision" transform="matrix(1,0,0,1,-109,-54)" stroke="url(#linearGradient14)">
      <path d="M124 167 L204 167 L204 207 L124 207 Z" stroke="none" clip-path="url(#clipPath2)"/>
    </g>
    <g text-rendering="geometricPrecision" stroke-miterlimit="1.45" shape-rendering="geometricPrecision" transform="matrix(1,0,0,1,-109,-54)" stroke-linecap="butt">
      <path fill="none" d="M124 167 L204 167 L204 207 L124 207 Z" clip-path="url(#clipPath2)"/>
      <text x="137.6035" xml:space="preserve" y="191.1543" clip-path="url(#clipPath2)" font-family="sans-serif" stroke="none">broker_1</text>
    </g>
    <g fill="url(#linearGradient15)" text-rendering="geometricPrecision" shape-rendering="geometricPrecision" transform="matrix(1,0,0,1,-109,-54)" stroke="url(#linearGradient15)">
      <path d="M242 69 L322 69 L322 109 L242 109 Z" stroke="none" clip-path="url(#clipPath2)"/>
    </g>
    <g text-rendering="geometricPrecision" stroke-miterlimit="1.45" shape-rendering="geometricPrecision" transform="matrix(1,0,0,1,-109,-54)" stroke-linecap="butt">
      <path fill="none" d="M242 69 L322 69 L322 109 L242 109 Z" clip-path="url(#clipPath2)"/>
      <text x="254.376" xml:space="preserve" y="93.1543" clip-path="url(#clipPath2)" font-family="sans-serif" stroke="none">zookeper</text>
    </g>
    <g text-rendering="geometricPrecision" stroke-miterlimit="1.45" shape-rendering="geometricPrecision" transform="matrix(1,0,0,1,-109,-54)" stroke-linecap="butt">
      <path fill="none" d="M922.5 542.9945 L922.5 611.209" clip-path="url(#clipPath2)"/>
      <path d="M922.5 619.209 L927.5 607.209 L922.5 610.209 L917.5 607.209 Z" clip-path="url(#clipPath2)" stroke="none"/>
      <rect x="874.5332" y="572.099" clip-path="url(#clipPath2)" fill="white" width="95.9336" height="17.9688" stroke="none"/>
      <text x="876.5332" xml:space="preserve" y="585.2376" clip-path="url(#clipPath2)" font-family="sans-serif" stroke="none">service_started</text>
      <path fill="none" d="M264.5204 307.022 L201.7238 378.9521" clip-path="url(#clipPath2)"/>
      <path d="M196.4625 384.9786 L208.121 379.2271 L202.3814 378.1988 L200.5878 372.6505 Z" clip-path="url(#clipPath2)" stroke="none"/>
      <rect x="132.896" y="337.0156" clip-path="url(#clipPath2)" fill="white" width="195.1914" height="17.9688" stroke="none"/>
      <text x="134.896" xml:space="preserve" y="350.1543" clip-path="url(#clipPath2)" font-family="sans-serif" stroke="none">service_completed_successfully</text>
      <path fill="none" d="M314.1566 306.9797 L592.2048 479.7379" clip-path="url(#clipPath2)"/>
      <path d="M599 483.96 L591.446 473.3799 L591.3554 479.2102 L586.1685 481.8739 Z" clip-path="url(#clipPath2)" stroke="none"/>
      <rect x="359.0312" y="386.5156" clip-path="url(#clipPath2)" fill="white" width="195.1914" height="17.9688" stroke="none"/>
      <text x="361.0312" xml:space="preserve" y="399.6543" clip-path="url(#clipPath2)" font-family="sans-serif" stroke="none">service_completed_successfully</text>
      <path fill="none" d="M783.2732 206.9951 L868.9428 262.6595" clip-path="url(#clipPath2)"/>
      <path d="M875.6511 267.0183 L868.3129 256.2875 L868.1043 262.1147 L862.8644 264.6729 Z" clip-path="url(#clipPath2)" stroke="none"/>
      <rect x="780.4157" y="228.0156" clip-path="url(#clipPath2)" fill="white" width="98.0723" height="17.9688" stroke="none"/>
      <text x="782.4157" xml:space="preserve" y="241.1543" clip-path="url(#clipPath2)" font-family="sans-serif" stroke="none">service_healthy</text>
      <path fill="none" d="M742.1755 206.9738 L602.6735 476.8532" clip-path="url(#clipPath2)"/>
      <path d="M599 483.96 L608.952 475.5959 L603.1327 475.9649 L600.0686 471.004 Z" clip-path="url(#clipPath2)" stroke="none"/>
      <rect x="621.5345" y="336.5156" clip-path="url(#clipPath2)" fill="white" width="98.0723" height="17.9688" stroke="none"/>
      <text x="623.5345" xml:space="preserve" y="349.6543" clip-path="url(#clipPath2)" font-family="sans-serif" stroke="none">service_healthy</text>
      <path fill="none" d="M752.5 108.9541 L752.5 158.9931" clip-path="url(#clipPath2)"/>
      <path d="M752.5 166.9931 L757.5 154.9931 L752.5 157.9931 L747.5 154.9931 Z" clip-path="url(#clipPath2)" stroke="none"/>
      <rect x="654.9043" y="129.0156" clip-path="url(#clipPath2)" fill="white" width="195.1914" height="17.9688" stroke="none"/>
      <text x="656.9043" xml:space="preserve" y="142.1543" clip-path="url(#clipPath2)" font-family="sans-serif" stroke="none">service_completed_successfully</text>
      <path fill="none" d="M376.4058 206.9951 L311.6815 261.8461" clip-path="url(#clipPath2)"/>
      <path d="M305.5784 267.0183 L317.9658 263.0745 L312.4445 261.1996 L311.5005 255.4456 Z" clip-path="url(#clipPath2)" stroke="none"/>
      <path fill="none" d="M282 207.9644 L282 258.9709" clip-path="url(#clipPath2)"/>
      <path d="M282 266.9709 L287 254.9709 L282 257.9709 L277 254.9709 Z" clip-path="url(#clipPath2)" stroke="none"/>
      <rect x="232.9639" y="228.5156" clip-path="url(#clipPath2)" fill="white" width="98.0723" height="17.9688" stroke="none"/>
      <text x="234.9639" xml:space="preserve" y="241.6543" clip-path="url(#clipPath2)" font-family="sans-serif" stroke="none">service_healthy</text>
      <path fill="none" d="M187.5942 206.9951 L252.3184 261.8461" clip-path="url(#clipPath2)"/>
      <path d="M258.4216 267.0183 L252.4995 255.4456 L251.5555 261.1996 L246.0342 263.0745 Z" clip-path="url(#clipPath2)" stroke="none"/>
      <path fill="none" d="M306.0552 108.978 L369.7861 161.9071" clip-path="url(#clipPath2)"/>
      <path d="M375.9404 167.0183 L369.9034 155.5051 L369.0168 161.2682 L363.5144 163.1979 Z" clip-path="url(#clipPath2)" stroke="none"/>
      <path fill="none" d="M282 108.9644 L282 159.9709" clip-path="url(#clipPath2)"/>
      <path d="M282 167.9709 L287 155.9709 L282 158.9709 L277 155.9709 Z" clip-path="url(#clipPath2)" stroke="none"/>
      <rect x="234.0332" y="129.5156" clip-path="url(#clipPath2)" fill="white" width="95.9336" height="17.9688" stroke="none"/>
      <text x="236.0332" xml:space="preserve" y="142.6543" clip-path="url(#clipPath2)" font-family="sans-serif" stroke="none">service_started</text>
      <path fill="none" d="M257.9448 108.978 L194.2139 161.9071" clip-path="url(#clipPath2)"/>
      <path d="M188.0596 167.0183 L200.4856 163.1979 L194.9832 161.2682 L194.0966 155.505 Z" clip-path="url(#clipPath2)" stroke="none"/>
    </g>
  </g>
</svg>
